<svg id="Layer_1" viewBox="0 0 24 24" xmlns="http://www.w3.org/2000/svg" data-name="Layer 1"><path d="m3 3c0-1.429.571-2 2-2s2 .571 2 2-.571 2-2 2-2-.571-2-2zm4.881 3.345c-.064-.015-1.587-.345-2.881-.345s-2.816.33-2.881.345c-.397.087-.702.405-.771.807-.015.082-.348 2.039-.348 4.349s.333 4.267.348 4.349c.069.401.374.72.771.807.03.007.385.083.881.162v4.683c0 .828.672 1.5 1.5 1.5h1c.828 0 1.5-.672 1.5-1.5v-4.683c.495-.079.851-.155.881-.162.397-.087.702-.405.771-.807.015-.082.348-2.039.348-4.349s-.333-4.267-.348-4.349c-.069-.401-.374-.72-.771-.807zm11.119-1.345c1.429 0 2-.571 2-2s-.571-2-2-2-2 .571-2 2 .571 2 2 2zm2.601 2.645c-.285-.75-.968-1.645-2.601-1.645s-2.315.895-2.598 1.637c-.881 2.259-1.445 7.006-1.4 9.854.01.564.009.786.006.874-.054.475.249.933.708 1.067.04.012.576.168 1.284.31v1.757c0 .828.672 1.5 1.5 1.5h1c.828 0 1.5-.672 1.5-1.5v-1.756c.711-.142 1.25-.299 1.29-.311.459-.134.762-.592.708-1.067-.003-.088-.004-.311.006-.875.045-2.838-.521-7.583-1.403-9.846zm-9.601-6.645c-.828 0-1.5.672-1.5 1.5v19c0 .828.672 1.5 1.5 1.5s1.5-.672 1.5-1.5v-19c0-.828-.672-1.5-1.5-1.5z"/></svg>