<?xml version="1.0" encoding="UTF-8"?>
<svg xmlns="http://www.w3.org/2000/svg" id="Layer_1" data-name="Layer 1" viewBox="0 0 24 24">
  <path d="m14.283,6.294l1.84-2.433c.524-.693.456-1.679-.159-2.293l-.834-.834c-.472-.472-1.1-.732-1.768-.732h-2.724c-.668,0-1.296.26-1.768.732l-.834.834c-.614.614-.683,1.601-.159,2.294l1.84,2.433c-3.86,1.013-6.717,4.532-6.717,8.706,0,4.962,4.038,9,9,9s9-4.038,9-9c0-4.174-2.856-7.693-6.717-8.706Zm-1.092-.215c-.228-.03-.458-.052-.691-.065v-2.124l2.881-.72c-.017.03-2.19,2.909-2.19,2.909Zm-3.614-4.64c.284-.283.66-.439,1.061-.439h2.724c.401,0,.777.156,1.061.439l.752.752-3.175.793-3.175-.793.752-.752Zm-.959,1.73l2.882.72v2.124c-.233.013-.463.035-.691.065,0,0-2.173-2.879-2.19-2.909Zm3.382,19.83c-4.411,0-8-3.589-8-8S7.589,7,12,7s8,3.589,8,8-3.589,8-8,8Z"/>
</svg>
